<?xml version="1.0" encoding="iso-8859-1"?>
<!-- Generator: Adobe Illustrator 24.0.0, SVG Export Plug-In . SVG Version: 6.00 Build 0)  -->
<svg version="1.1" id="Layer_1" xmlns="http://www.w3.org/2000/svg" xmlns:xlink="http://www.w3.org/1999/xlink" x="0px" y="0px"
	 width="800px" height="500px" viewBox="0 0 800 500" style="enable-background:new 0 0 800 500;" xml:space="preserve">
<style type="text/css">
	.st0{fill:#00AEEF;}
</style>
<g>
	<path class="st0" d="M117.5,257.2H55.4c-5.4,0-11.7,4-14,8.8l-30.5,63.5c-2.3,4.8,0.2,8.8,5.5,8.8h62.4c5.4,0,11.7-4,14-8.8
		l30.6-63.5C125.7,261.2,122.9,257.2,117.5,257.2z"/>
	<path class="st0" d="M211.5,257.2h-62.1c-5.4,0-11.7,4-14,8.8l-30.5,63.5c-2.3,4.8,0.2,8.8,5.5,8.8h62.4c5.4,0,11.7-4,14-8.8
		l30.6-63.5C219.7,261.2,216.9,257.2,211.5,257.2z"/>
	<path class="st0" d="M305.5,257.2h-62.1c-5.4,0-11.7,4-14,8.8l-30.5,63.5c-2.3,4.8,0.2,8.8,5.5,8.8h62.4c5.4,0,11.7-4,14-8.8
		l30.6-63.5C313.6,261.2,310.9,257.2,305.5,257.2z"/>
	<path class="st0" d="M403.5,291.1c-6.8,0-12.6,8.9-14.1,14.5c-1.1,4.2,0.4,7,4.6,7c6.3,0,12.3-8.5,14-14.6
		C408.9,294.6,408.2,291.1,403.5,291.1z"/>
	<path class="st0" d="M445.1,304.3c-1,3.5,0.6,5.4,4.2,5.4c3.9,0,8.3-3,11.2-8.9l4.6-9.3c-0.8-0.4-2.5-0.6-4.1-0.6
		C454,290.9,447,297.7,445.1,304.3z"/>
	<path class="st0" d="M737.4,257.2H337.4c-5.4,0-11.7,4-14,8.8l-30.5,63.5c-2.3,4.8,0.2,8.8,5.5,8.8h400.1c5.4,0,11.7-4,14-8.8
		l30.6-63.5C745.5,261.2,742.7,257.2,737.4,257.2z M503.9,274.3c1-3.6,4.8-6,8.4-6c3.5,0,5.5,2.1,4.6,5.2c-1,3.7-4.8,5.9-8.6,5.9
		h-0.2C504.9,279.4,503.1,277.4,503.9,274.3z M357.6,319.8h-33.1l23.8-49.5h11.8l-19.3,40.2H362L357.6,319.8z M420.3,297.8
		c-3.5,13.1-16.2,22.8-30.1,22.8c-10.2,0-15.4-5.9-13-14.9c3.3-12.4,15.8-22.7,30.1-22.7C418.1,283,422.5,289.6,420.3,297.8z
		 M466.7,312.4c-3.2,6.4-6.7,11.4-12.4,14.7c-5.2,3-10.9,3.5-16.3,3.5c-5.4,0-10.1-0.8-12.6-2.2l4.6-7.6c1.9,1.1,6.5,1.9,10,1.9
		c5.9,0,10-0.7,13.7-7.6l1-2.1h-0.2c-4.3,3.2-8.1,4-11.9,3.8c-8-0.3-12.3-4.2-10.5-11c3.1-11.4,15.8-22.7,33.3-22.7
		c5.7,0,10.4,0.9,14.2,2.4L466.7,312.4z M494.3,319.8h-11.8l17.3-35.9h11.8L494.3,319.8z M549.3,292.3c-1.5-0.7-4.1-1.5-7.6-1.5
		c-3.2,0-5.6,1.2-6.1,3.2c-0.4,1.5,0.9,2.7,3.8,4.1c3.9,2,7.7,4.8,6.4,9.8c-2.2,8.2-11.2,12.7-21.9,12.6c-5.1-0.1-9.5-1.2-11.5-2.8
		l4.9-7.4c2,1,5.9,2.5,9.8,2.5c3.4,0,5.5-1.5,6-3.2c0.5-1.8-0.5-3-3.8-4.6c-4.1-2.1-7.1-5.1-5.9-9.5c2-7.5,10.6-12.4,21-12.4
		c4.7,0,8.2,0.9,9.9,1.8L549.3,292.3z M582.9,291.9l-6,12.2c-0.7,1.4-1.5,3.3-1.9,4.6c-0.5,1.8,0,3,2.6,3c1,0,2.2,0,3.2-0.1
		l-3.5,8.3c-1.7,0.5-4.7,0.8-7.2,0.8c-7.2,0-9.7-3.2-8.4-7.8c0.5-1.9,1.3-3.9,2.7-6.7l6.9-14.2h-5.1l3.8-8.1h5.2l3.3-6.8l13-2.9
		l-4.7,9.7h8.6l-4,8.1H582.9z M606.1,319.8h-11.8l17.3-35.9h11.8L606.1,319.8z M628.8,273.5c-1,3.7-4.8,5.9-8.6,5.9H620
		c-3.3,0-5.1-2.1-4.3-5.1c1-3.6,4.8-6,8.4-6C627.7,268.2,629.6,270.3,628.8,273.5z M660.1,291.5c-8.4,0-15.4,6.4-17.2,13.1
		c-1.3,4.9,1.5,7.4,5.9,7.4c3.5,0,6.1-0.7,8.4-1.5l-2.1,8c-2.8,1.1-7.2,1.9-11.9,1.9c-10,0-15.5-5.4-13-14.7
		c3.4-12.8,17-22.8,32.3-22.8c3.5,0,6.3,0.6,7.9,1.2l-5.1,8.2C664,291.9,662.4,291.5,660.1,291.5z M706.6,292.3
		c-1.5-0.7-4.1-1.5-7.6-1.5c-3.2,0-5.6,1.2-6.1,3.2c-0.4,1.5,0.9,2.7,3.8,4.1c3.9,2,7.8,4.8,6.4,9.8c-2.2,8.2-11.2,12.7-21.9,12.6
		c-5.1-0.1-9.5-1.2-11.5-2.8l4.9-7.4c2,1,5.9,2.5,9.8,2.5c3.4,0,5.5-1.5,6-3.2c0.5-1.8-0.5-3-3.8-4.6c-4.1-2.1-7.1-5.1-5.9-9.5
		c2-7.5,10.6-12.4,21-12.4c4.7,0,8.2,0.9,9.9,1.8L706.6,292.3z"/>
	<path class="st0" d="M62.4,242.8h62.4c5.4,0,11.7-4,14-8.8l30.6-63.5c2.3-4.8-0.5-8.8-5.8-8.8h-62.1c-5.4,0-11.7,4-14,8.8L56.8,234
		C54.5,238.8,57,242.8,62.4,242.8z M71.8,229.2l4.3-8c1.3-2.3,4.1-2.3,4.1-2.3h34.9c2.9,0,4.1-2.3,4.1-2.3l3-6.2
		c1.2-2.3-1.7-2.3-1.7-2.3H85c-2.9,0-1.6-2.3-1.6-2.3L98.4,175c1.3-2.3,4.2-2.3,4.2-2.3H153c2.9,0,1.6,2.3,1.6,2.3l-3.4,7.2
		c-1.3,2.3-4.2,2.6-4.2,2.6h-35.5c-2.9,0-3.3,2-3.3,2l-3.1,6c-1.3,2.3,1.6,2.3,1.6,2.3h35.6c2.9,0,1.6,2.3,1.6,2.3l-15.5,31.7
		c-1.2,2.3-4.1,2.3-4.1,2.3l-50.8,0C70.6,231.5,71.8,229.2,71.8,229.2z"/>
	<path class="st0" d="M156.4,242.8h62.4c5.4,0,11.7-4,14-8.8l30.6-63.5c2.3-4.8-0.5-8.8-5.8-8.8h-62.1c-5.4,0-11.7,4-14,8.8
		L150.9,234C148.5,238.8,151,242.8,156.4,242.8z M166,229.1l4-8.4c1.3-2.4,4.3-1.7,4.3-1.7h31.9c3,0,4.3-2.8,4.3-2.8l0.3-0.6
		c1.3-2.4,0.1-5,0.1-5l-16.3-35.4c-1.2-2.6,1.8-2.6,1.8-2.6h8.4c3,0,4.2,2.6,4.2,2.6l9.7,21.1c1.2,2.6,2.5,0.2,2.5,0.2l11.8-21.6
		c1.3-2.4,4.3-2.4,4.3-2.4h9.6c3,0,1.7,2.4,1.7,2.4l-26.9,54.1c-1.3,2.4-4.3,2.4-4.3,2.4h-49.7C164.7,231.5,166,229.1,166,229.1z"/>
	<path class="st0" d="M250.3,242.8h62.4c5.4,0,11.7-4,14-8.8l30.6-63.5c2.3-4.8-0.5-8.8-5.8-8.8h-62.1c-5.4,0-11.7,4-14,8.8
		L244.8,234C242.5,238.8,245,242.8,250.3,242.8z M259.7,229.2l4.3-8c1.3-2.3,4.1-2.3,4.1-2.3h34.9c2.9,0,4.1-2.3,4.1-2.3l3-6.2
		c1.2-2.3-1.7-2.3-1.7-2.3h-35.6c-2.9,0-1.6-2.3-1.6-2.3l15-30.7c1.3-2.3,4.2-2.3,4.2-2.3h50.4c2.9,0,1.6,2.3,1.6,2.3l-3.4,7.2
		c-1.3,2.3-4.2,2.6-4.2,2.6h-35.5c-2.9,0-3.3,2-3.3,2l-3.1,6c-1.3,2.3,1.6,2.3,1.6,2.3h35.6c2.9,0,1.6,2.3,1.6,2.3l-15.5,31.7
		c-1.2,2.3-4.1,2.3-4.1,2.3l-50.8,0C258.4,231.5,259.7,229.2,259.7,229.2z"/>
	<path class="st0" d="M344.4,242.8h62.4c5.4,0,11.7-4,14-8.8l30.6-63.5c2.3-4.8-0.5-8.8-5.8-8.8h-62.1c-5.4,0-11.7,4-14,8.8
		L338.9,234C336.6,238.8,339,242.8,344.4,242.8z M373.4,229.7l20.5-43.2c0.5-1,0-1.8-1.1-1.8h-15.6c-1.1,0-1-0.8-0.5-1.7l3.9-8.4
		c0.5-1,1.6-1.7,2.7-1.7H435c1.1,0,1.5,0.8,1.1,1.7l-4.3,8.4c-0.5,1-1.8,1.7-2.8,1.7h-16.4c-1.1,0-2.3,0.8-2.8,1.8l-20.5,43.2
		c-0.5,1-1.7,1.8-2.8,1.8h-11.9C373.4,231.5,372.9,230.7,373.4,229.7z"/>
	<path class="st0" d="M438.4,242.8h62.4c5.4,0,11.7-4,14-8.8l30.6-63.5c2.3-4.8-0.5-8.8-5.8-8.8h-62.1c-5.4,0-11.7,4-14,8.8
		L432.9,234C430.5,238.8,433,242.8,438.4,242.8z M448,229.7l26.8-55.2c0.5-1,1.7-1.8,2.8-1.8h50.1c1.1,0,1.6,0.8,1.2,1.8l-4.3,8.5
		c-0.4,1-1.6,1.8-2.7,1.8h-34.7c-1.1,0-2.4,0.8-2.9,1.7l-3.7,7.1c-0.5,0.9,0,1.7,1,1.7h22.3c1.1,0,1.6,0.8,1.1,1.8l-4.8,9.3
		c-0.5,1-1.7,1.8-2.8,1.8h-22.3c-1.1,0-2.3,0.8-2.8,1.8l-3.3,7.2c-0.4,1,0.1,1.8,1.1,1.8h34.9c1.1,0,1.6,0.8,1.1,1.8l-4.4,9
		c-0.5,1-0.9,1.7-2,1.7h-50.8C448,231.5,447.5,230.7,448,229.7z"/>
	<path class="st0" d="M783.3,161.7H571.5c-5.4,0-11.7,4-14,8.8L526.9,234c-2.3,4.8,0.2,8.8,5.5,8.8h212.1c5.4,0,11.7-4,14-8.8
		l30.6-63.5C791.5,165.7,788.7,161.7,783.3,161.7z M637.9,174.5L611,229.7c-0.4,1-1.6,1.8-2.7,1.8h-10.9c-1.1,0-1.6-0.8-1.1-1.8
		l15.1-30.5c0.4-1,0.2-1.2-0.6-0.5L579,229.3c-0.8,0.7-1.6,0.5-1.9-0.6l-4.2-29.5c-0.2-1.1-0.8-1.1-1.3-0.2l-15,30.4
		c-0.5,1-1.7,1.8-2.8,1.8l-11,0.1c-1.1,0-1.5-0.8-1-1.7l27-54.9c0.5-1,2.5-1.9,3.6-1.9l10,0.1c1.1,0,2,0.9,2.1,2l2.5,27.9
		c0.1,1.1,0.8,1.4,1.6,0.7l32.6-29.3c0.8-0.7,2.3-1.3,3.3-1.3l12.2,0.1C637.8,172.7,638.3,173.5,637.9,174.5z"/>
</g>
</svg>
